<svg xmlns="http://www.w3.org/2000/svg" width="512" height="512" viewBox="0 0 512 512" role="img" aria-label="Barbershop logo">
  <defs>
    <linearGradient id="wood" x1="0" y1="0" x2="0" y2="1">
      <stop offset="0" stop-color="#3a2618"/>
      <stop offset="1" stop-color="#24160d"/>
    </linearGradient>
    <linearGradient id="gold" x1="0" y1="0" x2="1" y2="1">
      <stop offset="0" stop-color="#f4d58d"/>
      <stop offset="0.5" stop-color="#c79a3b"/>
      <stop offset="1" stop-color="#8a6420"/>
    </linearGradient>
  </defs>
  <rect width="512" height="512" rx="96" fill="url(#wood)"/>
  <circle cx="256" cy="256" r="206" fill="none" stroke="url(#gold)" stroke-width="10"/>
  <circle cx="256" cy="256" r="186" fill="none" stroke="url(#gold)" stroke-width="3" opacity="0.5"/>
  <!-- Scissors -->
  <g fill="none" stroke="url(#gold)" stroke-width="14" stroke-linecap="round" stroke-linejoin="round">
    <circle cx="180" cy="356" r="30"/>
    <circle cx="332" cy="356" r="30"/>
    <path d="M201 335 L360 176"/>
    <path d="M311 335 L152 176"/>
    <path d="M256 256 L256 150"/>
  </g>
  <circle cx="256" cy="256" r="9" fill="url(#gold)"/>
  <!-- Barber pole top accent -->
  <path d="M236 138 h40 a8 8 0 0 1 8 8 v6 h-56 v-6 a8 8 0 0 1 8 -8 z" fill="url(#gold)"/>
  <text x="256" y="446" text-anchor="middle" font-family="Georgia, 'Times New Roman', serif" font-size="40" font-weight="700" letter-spacing="6" fill="url(#gold)">BARBEARIA</text>
</svg>
